<svg xmlns="http://www.w3.org/2000/svg" xmlns:xlink="http://www.w3.org/1999/xlink" width="350" height="250" viewBox="0 0 350 250">
  <defs>
    <clipPath id="clip-Mesa_de_trabajo_5">
      <rect width="350" height="250"/>
    </clipPath>
  </defs>
  <g id="Mesa_de_trabajo_5" data-name="Mesa de trabajo – 5" clip-path="url(#clip-Mesa_de_trabajo_5)">
    <rect width="350" height="250" fill="#e97dc5"/>
    <g id="cosmetic-soap" transform="translate(86.213 36.213)">
      <path id="Trazado_30" data-name="Trazado 30" d="M55.747,19.624a4.992,4.992,0,0,1-.037.745v.037a15.862,15.862,0,0,1-.484,3.5,17.317,17.317,0,0,1-1.266,3.613l-1.49,3.166-3.241-1.3a32.541,32.541,0,0,0-12.105-2.309,33.569,33.569,0,0,0-12.105,2.272l-3.2,1.266L20.288,27.52a17.194,17.194,0,0,1-1.751-7.114,5.5,5.5,0,0,1-.037-.782,18.624,18.624,0,1,1,37.247,0Z" transform="translate(50.408 2.725)" fill="#58595b"/>
      <path id="Trazado_31" data-name="Trazado 31" d="M55.683,9.47v.037l-.484,3.5a11.033,11.033,0,0,0-1.155-.559,20.663,20.663,0,0,0-2.086-.894,40.578,40.578,0,0,0-29.686-.037c-1.155.447-2.235.931-3.315,1.453a17.631,17.631,0,0,1-.447-3.464,31.527,31.527,0,0,1,3.762-1.751,40.831,40.831,0,0,1,29.686.074A36.493,36.493,0,0,1,55.683,9.47Z" transform="translate(50.435 13.624)" opacity="0.2"/>
      <path id="Trazado_32" data-name="Trazado 32" d="M42.124,19.624a4.992,4.992,0,0,1-.037.745v.037a15.861,15.861,0,0,1-.484,3.5,17.316,17.316,0,0,1-1.266,3.613l-1.49,3.166-3.241-1.3A32.541,32.541,0,0,0,23.5,27.073V1A18.63,18.63,0,0,1,42.124,19.624Z" transform="translate(64.031 2.725)" opacity="0.2"/>
      <path id="Trazado_33" data-name="Trazado 33" d="M111.223,57.243l-8.6,4.283V81.566a7.471,7.471,0,0,1-7.449,7.449H13.225A3.736,3.736,0,0,1,9.5,85.291V66.667A18.63,18.63,0,0,1,28.124,48.043h14.9V31.729l5.252,2.347a32.25,32.25,0,0,0,13.372,2.794c.745,0,1.49-.037,2.235-.075a32.693,32.693,0,0,0,8.939-1.9A21.948,21.948,0,0,0,74.981,34L80.27,31.58V48.043h14.9A18.575,18.575,0,0,1,111.223,57.243Z" transform="translate(25.885 86.047)" fill="#fcbc70"/>
      <path id="Trazado_34" data-name="Trazado 34" d="M55.747,33v6.556a24.343,24.343,0,0,1-2.2,1.117,39.138,39.138,0,0,1-13.67,3.464c-.931.037-1.825.075-2.756.075h-.037A40.082,40.082,0,0,1,20.7,40.747c-.745-.335-1.49-.67-2.2-1.043V33.149c.708.372,1.453.708,2.2,1.043a40.082,40.082,0,0,0,16.389,3.464h.037c.931,0,1.825-.037,2.756-.075a39.139,39.139,0,0,0,13.67-3.464A24.341,24.341,0,0,0,55.747,33Z" transform="translate(50.408 89.916)" opacity="0.1"/>
      <path id="Trazado_35" data-name="Trazado 35" d="M94.444,28.09V49.284A42.5,42.5,0,0,1,72.1,86.9a24.338,24.338,0,0,1-2.2,1.117,39.138,39.138,0,0,1-13.67,3.464c-.931.037-1.825.074-2.756.074h-.037A40.082,40.082,0,0,1,37.046,88.1c-.745-.335-1.49-.67-2.2-1.043A40.782,40.782,0,0,1,12.537,51.816c-.037-.41-.037-.819-.037-1.229V43.4l7.449-3.985L53.472,21.46,64.5,15.575a11.171,11.171,0,0,1,11.4.484L86.957,23.21v.037l3.762,2.421,3.538,2.309Z" transform="translate(34.059 38.806)" fill="#fec77c"/>
      <path id="Trazado_36" data-name="Trazado 36" d="M94.444,46.972V58.146L71.835,44.737a3.754,3.754,0,0,0-3.8-.149L53.472,52.373,19.949,70.326l-7.412,3.948-.037.037V46.972A41.33,41.33,0,0,1,35.333,10.246c1.08-.521,2.16-1.006,3.315-1.453a40.578,40.578,0,0,1,29.686.037,20.664,20.664,0,0,1,2.086.894,11.031,11.031,0,0,1,1.155.559,38.642,38.642,0,0,1,6.481,3.948,40.351,40.351,0,0,1,16.2,29.016A30.8,30.8,0,0,1,94.444,46.972Z" transform="translate(34.059 16.348)" fill="#414042"/>
      <path id="Trazado_37" data-name="Trazado 37" d="M94.444,29.224v3.762L71.835,19.577a3.754,3.754,0,0,0-3.8-.149L53.472,27.213,19.949,45.166l-7.412,3.948-.037.037V45.389l.037-.037L19.949,41.4,53.472,23.451l14.564-7.785a3.844,3.844,0,0,1,3.8.149Z" transform="translate(34.059 41.509)" opacity="0.2"/>
      <path id="Trazado_38" data-name="Trazado 38" d="M73.076,104.484l-8.6,4.283v20.039a7.471,7.471,0,0,1-7.449,7.449H23.5V21.46l11.025-5.885a11.171,11.171,0,0,1,11.4.484L56.985,23.21v.037l3.762,2.421,3.539,2.309.186.112V49.284a43.4,43.4,0,0,1-3.054,15.979A41.984,41.984,0,0,1,42.124,86.9v8.381h14.9A18.575,18.575,0,0,1,73.076,104.484Z" transform="translate(64.031 38.806)" opacity="0.03"/>
      <path id="Trazado_39" data-name="Trazado 39" d="M64.472,46.972V58.146L41.863,44.737a3.754,3.754,0,0,0-3.8-.149L23.5,52.373V6A40.383,40.383,0,0,1,38.362,8.831a20.663,20.663,0,0,1,2.086.894,11.031,11.031,0,0,1,1.155.559,38.643,38.643,0,0,1,6.481,3.948,40.351,40.351,0,0,1,16.2,29.016A30.8,30.8,0,0,1,64.472,46.972Z" transform="translate(64.031 16.348)" opacity="0.25"/>
      <path id="Trazado_40" data-name="Trazado 40" d="M71.149,34.865a.8.8,0,0,1-.268-.469,16.458,16.458,0,0,0-9.073-10.358A21.185,21.185,0,0,0,52.764,22C44.1,22,36.651,27.092,34.639,34.407a.839.839,0,0,1-.25.451c-6.947,1.81-11.748,8.768-11.42,16.568A15.792,15.792,0,0,0,38.494,66.7h6.816V51.8A3.653,3.653,0,0,1,46.488,49.1a3.546,3.546,0,0,1,2.551-1.032H56.6a3.837,3.837,0,0,1,1.605.417,4.012,4.012,0,0,1,.9.685,3.58,3.58,0,0,1,1.11,2.626V66.7h7.449a3.811,3.811,0,0,1,.492-1.874A3.748,3.748,0,0,1,72,63.028a3.161,3.161,0,0,1,.823.264l2.09.98,1.807-1.43a15.376,15.376,0,0,0,5.84-11.405V51.4C82.882,43.626,78.081,36.668,71.149,34.865Z" transform="translate(62.543 59.944)" fill="#00aeef"/>
      <path id="Trazado_41" data-name="Trazado 41" d="M53.391,34.865a.8.8,0,0,1-.268-.469A16.458,16.458,0,0,0,44.05,24.037,20.881,20.881,0,0,0,29.471,22.76a20.858,20.858,0,0,1,3.557,1.278A16.468,16.468,0,0,1,42.1,34.4a.779.779,0,0,0,.268.469C49.3,36.672,54.1,43.626,53.779,51.4v.041a15.382,15.382,0,0,1-5.84,11.405l-1.806,1.43-2.09-.98a3.161,3.161,0,0,0-.823-.264,3.482,3.482,0,0,0-.764,0V66.7H49.9a3.811,3.811,0,0,1,.492-1.874,3.748,3.748,0,0,1,3.848-1.8,3.162,3.162,0,0,1,.823.264l2.09.98,1.807-1.43A15.376,15.376,0,0,0,64.8,51.433v-.041C65.124,43.626,60.323,36.668,53.391,34.865Z" transform="translate(80.301 59.944)" opacity="0.1"/>
      <path id="Trazado_42" data-name="Trazado 42" d="M71.2,53.483v8.455a7.374,7.374,0,0,1-4.1,6.667l-2.2,1.117-8.6,4.283V94.045a7.471,7.471,0,0,1-7.449,7.449h-14.9A7.471,7.471,0,0,1,26.5,94.045V38.174a10.675,10.675,0,0,1,.67-3.762,11.608,11.608,0,0,1,2.756-4.283A11.02,11.02,0,0,1,37.674,27h7.673a10.827,10.827,0,0,1,3.5.67,9.886,9.886,0,0,1,1.564.67A11.15,11.15,0,0,1,52.946,30.2a2.248,2.248,0,0,1,.3.3A11.389,11.389,0,0,1,56.3,38.174v4.358a11.321,11.321,0,0,1,5.587-.484A11.488,11.488,0,0,1,71.2,53.483Z" transform="translate(72.206 73.568)" fill="#fec77c"/>
      <path id="Trazado_43" data-name="Trazado 43" d="M39.949,37.684V56.307a3.725,3.725,0,1,1-7.449,0V27.18a9.886,9.886,0,0,1,1.564.67,11.17,11.17,0,0,1,5.885,9.833Z" transform="translate(88.554 74.058)" opacity="0.1"/>
      <rect id="Rectángulo_1" data-name="Rectángulo 1" width="179" height="179" transform="translate(-0.213 -0.213)" fill="none"/>
    </g>
  </g>
</svg>
