<svg xmlns="http://www.w3.org/2000/svg" xmlns:xlink="http://www.w3.org/1999/xlink" width="350" height="500" viewBox="0 0 350 500">
  <defs>
    <clipPath id="clip-Mesa_de_trabajo_7">
      <rect width="350" height="500"/>
    </clipPath>
  </defs>
  <g id="Mesa_de_trabajo_7" data-name="Mesa de trabajo – 7" clip-path="url(#clip-Mesa_de_trabajo_7)">
    <rect width="350" height="500" fill="#5dd5ee"/>
    <g id="shop" transform="translate(79 154)">
      <rect id="Rectángulo_2" data-name="Rectángulo 2" width="165.786" height="137.162" transform="translate(12.671 51.904)" fill="#fef4d0"/>
      <rect id="Rectángulo_3" data-name="Rectángulo 3" width="11.243" height="137.162" transform="translate(167.214 51.904)" fill="#feea9d"/>
      <rect id="Rectángulo_4" data-name="Rectángulo 4" width="66.332" height="61.835" rx="3" transform="translate(26.421 105.356)" fill="#52bbe9"/>
      <rect id="Rectángulo_5" data-name="Rectángulo 5" width="66.332" height="5.621" transform="translate(26.421 134.025)" fill="#fff"/>
      <rect id="Rectángulo_6" data-name="Rectángulo 6" width="5.621" height="61.835" transform="translate(56.776 105.356)" fill="#fff"/>
      <rect id="Rectángulo_7" data-name="Rectángulo 7" width="53.392" height="83.71" rx="3" transform="translate(111.967 105.356)" fill="#f9b15e"/>
      <path id="Trazado_55" data-name="Trazado 55" d="M419.473,281.13H408.23a1.124,1.124,0,0,1,1.124,1.124v81.462a1.124,1.124,0,0,1-1.124,1.124h11.243a1.124,1.124,0,0,0,1.124-1.124V282.254a1.124,1.124,0,0,0-1.124-1.124Z" transform="translate(-255.242 -175.774)" fill="#f9a242"/>
      <path id="Trazado_56" data-name="Trazado 56" d="M407.811,369.864A2.811,2.811,0,0,1,405,367.054V355.811a2.811,2.811,0,1,1,5.621,0v11.243a2.811,2.811,0,0,1-2.811,2.811Z" transform="translate(-253.222 -220.71)" fill="#e4eef9"/>
      <path id="Trazado_57" data-name="Trazado 57" d="M193.756,73.366,7.5,73.373,14.62,37.58H185.886Z" transform="translate(-4.689 -23.497)" fill="#ed4769"/>
      <path id="Trazado_58" data-name="Trazado 58" d="M185.886,37.58H174.643l7.87,35.786L7.5,73.373h0l186.256-.007Z" transform="translate(-4.689 -23.497)" fill="#eb304a"/>
      <path id="Trazado_59" data-name="Trazado 59" d="M7.5,133.09H34.108v9.864a13.3,13.3,0,0,1-13.3,13.3h0a13.3,13.3,0,0,1-13.3-13.3Z" transform="translate(-4.689 -83.213)" fill="#e4eef9"/>
      <path id="Trazado_60" data-name="Trazado 60" d="M78.5,133.09h26.608v9.864a13.3,13.3,0,0,1-13.3,13.3h0a13.3,13.3,0,0,1-13.3-13.3Z" transform="translate(-49.081 -83.213)" fill="#ed4769"/>
      <path id="Trazado_61" data-name="Trazado 61" d="M149.5,133.09h26.608v9.864a13.3,13.3,0,0,1-13.3,13.3h0a13.3,13.3,0,0,1-13.3-13.3Z" transform="translate(-93.473 -83.213)" fill="#e4eef9"/>
      <path id="Trazado_62" data-name="Trazado 62" d="M220.285,133.07h26.608v9.871a13.311,13.311,0,0,1-13.311,13.311h0a13.311,13.311,0,0,1-13.311-13.311V133.07Z" transform="translate(-137.722 -83.201)" fill="#ed4769"/>
      <path id="Trazado_63" data-name="Trazado 63" d="M291.335,133.07h26.608v9.871a13.311,13.311,0,0,1-13.311,13.311h0a13.311,13.311,0,0,1-13.311-13.311V133.07Z" transform="translate(-182.145 -83.201)" fill="#e4eef9"/>
      <path id="Trazado_64" data-name="Trazado 64" d="M362.385,133.07h26.608v9.871a13.311,13.311,0,0,1-13.311,13.311h0a13.311,13.311,0,0,1-13.311-13.311V133.07Z" transform="translate(-226.568 -83.201)" fill="#ed4769"/>
      <path id="Trazado_65" data-name="Trazado 65" d="M246.918,73.366,244.295,37.58H222.933L220.31,73.366Z" transform="translate(-137.747 -23.497)" fill="#e4eef9"/>
      <path id="Trazado_66" data-name="Trazado 66" d="M149.5,73.366,157,37.58H178.66l-2.623,35.786Z" transform="translate(-93.473 -23.497)" fill="#ed4769"/>
      <path id="Trazado_67" data-name="Trazado 67" d="M433.45,133.07h26.608v9.871a13.311,13.311,0,0,1-13.285,13.311h0a13.311,13.311,0,0,1-13.311-13.311V133.07Z" transform="translate(-271.01 -83.201)" fill="#e4eef9"/>
      <path id="Trazado_68" data-name="Trazado 68" d="M461.679,133.07v9.871a13.316,13.316,0,0,1-7.684,12.068,13.274,13.274,0,0,0,5.623,1.243h0a13.311,13.311,0,0,0,13.311-13.311V133.07Z" transform="translate(-283.856 -83.201)" fill="#d5e0f2"/>
      <path id="Trazado_69" data-name="Trazado 69" d="M313.541,73.366l-7.5-35.786H284.31l2.623,35.786Z" transform="translate(-177.762 -23.497)" fill="#ed4769"/>
      <path id="Trazado_70" data-name="Trazado 70" d="M368.918,37.58l7.5,35.786H349.805l-7.5-35.786Z" transform="translate(-214.026 -23.497)" fill="#e4eef9"/>
      <path id="Trazado_71" data-name="Trazado 71" d="M86,37.58,78.5,73.366h26.608l7.5-35.786Z" transform="translate(-49.081 -23.497)" fill="#e4eef9"/>
      <path id="Trazado_72" data-name="Trazado 72" d="M27.724,7.5H196.7a1.124,1.124,0,0,1,1.124,1.124V19.279H26.6V8.624A1.124,1.124,0,0,1,27.724,7.5Z" transform="translate(-16.631 -4.689)" fill="#f0728f"/>
      <path id="Trazado_73" data-name="Trazado 73" d="M461.733,7.5H450.49a1.124,1.124,0,0,1,1.124,1.124V19.279h11.243V8.624A1.124,1.124,0,0,0,461.733,7.5Z" transform="translate(-281.664 -4.689)" fill="#ed4769"/>
      <path id="Trazado_74" data-name="Trazado 74" d="M189.066,502.621H2.811a2.811,2.811,0,0,1,0-5.621H189.066a2.811,2.811,0,0,1,0,5.621Z" transform="translate(0 -310.744)" fill="#787681"/>
      <path id="Trazado_75" data-name="Trazado 75" d="M191.877,59.74V49.869a2.809,2.809,0,0,0-.064-.592h0l-7.806-35.52V2.811A2.811,2.811,0,0,0,181.2,0H9.969A2.811,2.811,0,0,0,7.158,2.811V13.63L.06,49.3v.026h0c-.019.09-.03.18-.041.274a1.053,1.053,0,0,1,0,.109c0,.049,0,.1,0,.15v9.864A16.141,16.141,0,0,0,9.86,74.577V186.256H2.811a2.811,2.811,0,0,0,0,5.621H189.066a2.811,2.811,0,1,0,0-5.621h-7.8V74.892A16.156,16.156,0,0,0,191.877,59.74ZM185.57,47.059h-20.9l-6.318-30.164h20.586ZM112,52.68h21.005v7.057a10.5,10.5,0,0,1-21.005,0Zm-.217-5.621L109.572,16.89H126l6.318,30.168Zm19.96-30.168H152.61l6.318,30.164H138.061Zm6.884,35.79h20.987v7.06a10.493,10.493,0,1,1-20.987,0ZM12.779,5.621H178.386v5.651H12.779Zm93.6,47.062V59.74a10.493,10.493,0,0,1-20.96.929c0-.307.026-.618.026-.929V52.684ZM85.588,47.062,87.8,16.894h16.137l2.211,30.168Zm-52.71,0L39.2,16.89H60.063L53.744,47.059Zm20.338,5.621V59.74a10.493,10.493,0,1,1-20.987,0V52.687Zm5.621,0H79.753V59.74c0,.311,0,.622.03.929a10.493,10.493,0,0,1-20.945-.929Zm.648-5.621L65.8,16.894H82.162L79.951,47.062ZM12.24,16.894H33.455L27.136,47.066H6.236ZM5.621,59.74V52.687H26.608V59.74a10.493,10.493,0,1,1-20.987,0ZM162.545,186.256H114.778V108.167h47.767Zm13.117,0h-7.5v-80.9a2.811,2.811,0,0,0-2.811-2.811H111.967a2.811,2.811,0,0,0-2.811,2.811v80.9H15.466V75.84H16.1a16.115,16.115,0,0,0,13.3-7.034,16.115,16.115,0,0,0,26.608,0,16.115,16.115,0,0,0,26.574.052,16.115,16.115,0,0,0,26.608-.052,16.115,16.115,0,0,0,26.627,0,16.115,16.115,0,0,0,26.608,0,16.115,16.115,0,0,0,13.207,7.038Zm.1-116.014a10.512,10.512,0,0,1-10.493-10.493V52.68h20.987v7.06a10.512,10.512,0,0,1-10.493,10.5Zm-21.174,78.913a2.811,2.811,0,0,0,2.811-2.811V135.1a2.811,2.811,0,1,0-5.621,0v11.243a2.811,2.811,0,0,0,2.811,2.811ZM92.753,102.545H26.421a2.811,2.811,0,0,0-2.811,2.811v61.835A2.811,2.811,0,0,0,26.421,170H92.753a2.811,2.811,0,0,0,2.811-2.811V105.356A2.811,2.811,0,0,0,92.753,102.545ZM56.776,164.381H29.231V139.647H56.776Zm0-30.356H29.231V108.167H56.776Zm33.166,30.356H62.4V139.647H89.942Zm0-30.356H62.4V108.167H89.942Z" fill="#18171c"/>
    </g>
  </g>
</svg>
