<svg xmlns="http://www.w3.org/2000/svg" xmlns:xlink="http://www.w3.org/1999/xlink" width="350" height="250" viewBox="0 0 350 250">
  <defs>
    <clipPath id="clip-Mesa_de_trabajo_2">
      <rect width="350" height="250"/>
    </clipPath>
  </defs>
  <g id="Mesa_de_trabajo_2" data-name="Mesa de trabajo – 2" clip-path="url(#clip-Mesa_de_trabajo_2)">
    <rect width="350" height="250" fill="#ffe600"/>
    <g id="layer1" transform="translate(80.99 -971.006)">
      <g id="g16697" transform="translate(0.987 1025.536)">
        <path id="path6923" d="M342.4,1264.673a50.106,50.106,0,0,0,2.581-15.817H190.749c.031,19.519,11.607,37.778,30.991,49.354H314.1a74.213,74.213,0,0,0,9.656-6.867c10.16-7.5,15.279-16.774,18.645-26.669Z" transform="translate(-175.144 -1172.854)" fill="#e4c68a"/>
        <path id="path6909" d="M220.714,1237.018a12.936,12.936,0,0,0-3.3.419h0a12.339,12.339,0,0,0-8.724,15.11c.031.129.07.259.109.382a12.339,12.339,0,0,0-1.241,20.689,12.3,12.3,0,0,0,4,14.892,12.315,12.315,0,0,0,11.423,17.278c.025.123.043.253.072.376a12.333,12.333,0,0,0,1.856,3.916h20.158a12.34,12.34,0,0,0,1.831-10.3c-.037-.123-.078-.247-.12-.37a12.348,12.348,0,0,0,1.241-20.7,12.323,12.323,0,0,0-3.988-14.893,12.309,12.309,0,0,0-11.423-17.266c-.025-.136-.056-.265-.085-.395a12.339,12.339,0,0,0-11.808-9.146Z" transform="translate(-114.287 -1234.098)" fill="#a5bc79"/>
        <path id="path6911" d="M250.417,1239.623a12.342,12.342,0,0,0-10.977,6.169c-.062.117-.122.234-.181.352a12.345,12.345,0,0,0-15.519,13.747,12.341,12.341,0,0,0-7.712,13.363,12.318,12.318,0,0,0-4.133,20.292c-.07.1-.138.216-.2.327a12.347,12.347,0,0,0-1.145,2.735H248.61a12.336,12.336,0,0,0,.144-4.495,12.341,12.341,0,0,0,7.712-13.363,12.3,12.3,0,0,0,4.133-20.291c.078-.111.154-.222.229-.339a12.339,12.339,0,0,0-4.519-16.845H256.3a12.346,12.346,0,0,0-5.88-1.65Z" transform="translate(-85.001 -1220.601)" fill="#78b591"/>
        <circle id="circle6913" cx="18.508" cy="18.508" r="18.508" transform="translate(71.163 31.545)" fill="#ffab5f"/>
        <path id="path6915" d="M209.258,1244.86a18.475,18.475,0,0,0-17.435,24.677h34.858a18.446,18.446,0,0,0-17.423-24.677Z" transform="translate(-175.141 -1193.512)" fill="#d8332c"/>
        <path id="path6917" d="M206.013,1242.983a12.339,12.339,0,0,0-8.543,21.062c.1.093.191.185.289.278a12.339,12.339,0,0,0,1.892,15H255.6a12.3,12.3,0,0,0-10.977-12.29,12.3,12.3,0,0,0-10.9-10.905,12.313,12.313,0,0,0-18.532-9.242c-.087-.1-.175-.2-.265-.3a12.34,12.34,0,0,0-8.9-3.615Z" transform="translate(-159.077 -1203.295)" fill="#78b591"/>
        <path id="path6919" d="M208.106,1238.47a3.085,3.085,0,0,0-3.049,3.929l14.5,54.1a3.087,3.087,0,1,0,5.965-1.591l-14.5-54.113a3.084,3.084,0,0,0-2.916-2.325Z" transform="translate(-101.791 -1226.544)" fill="#86a151"/>
        <path id="path6921" d="M204.416,1243.86v30.846h20.363a20.617,20.617,0,0,0,2.265-9.254c0-11.925-10.135-21.592-22.628-21.592Z" transform="translate(-104.498 -1198.681)" fill="#ef645e"/>
        <path id="path6925" d="M193.835,1250.36a3.085,3.085,0,0,0,0,6.17h46.221a3.085,3.085,0,0,0,0-6.17Z" transform="translate(-175.141 -1165.081)" fill="#efdebb"/>
        <rect id="rect6927" width="92.538" height="12.338" rx="1" transform="translate(46.455 125.379)" fill="#d9ae58"/>
        <path id="rect7048" d="M205.92,1256.86a6.169,6.169,0,1,1,0,12.338h23.629a6.169,6.169,0,1,0,0-12.338Z" transform="translate(-96.724 -1131.481)" fill="#bf9540"/>
        <path id="path6937" d="M239.109,1241.08a3.084,3.084,0,0,0-2.723,1.591l-25.556,44.269a3.085,3.085,0,1,0,5.338,3.085l25.568-44.269a3.085,3.085,0,0,0-2.627-4.675Z" transform="translate(-73.81 -1213.052)" fill="#407556"/>
        <path id="path6945" d="M198.4,1244.43a3.084,3.084,0,0,0-2.145,5.289L220,1273.469a3.085,3.085,0,1,0,4.362-4.362l-23.749-23.749a3.081,3.081,0,0,0-2.217-.927Z" transform="translate(-151.487 -1195.735)" fill="#407556"/>
        <path id="path6949" d="M194.627,1252.36c-4.171-.062-4.171,6.229,0,6.169h27.966c4.171.061,4.171-6.229,0-6.169Z" transform="translate(-171.27 -1154.744)" fill="#efdebb"/>
        <path id="path7043" d="M237.627,1248.86a50.137,50.137,0,0,1-2.591,15.821c-3.366,9.9-8.48,19.167-18.64,26.664a74.252,74.252,0,0,1-9.651,6.868h24.677a74.239,74.239,0,0,0,9.651-6.868c10.16-7.5,15.274-16.769,18.64-26.664a50.136,50.136,0,0,0,2.591-15.821Z" transform="translate(-92.458 -1172.835)" fill="#cdaa64"/>
        <path id="path6953" d="M188.743,1258.86H367.65" transform="translate(-185.515 -1121.143)" fill="none"/>
        <path id="path14053" d="M290.568,1236.8c-7.613,2.041-11.812,9.608-10.688,17.231a15.615,15.615,0,0,0-6.374,11.362,21.59,21.59,0,0,0-15.11,12.025,15.726,15.726,0,0,0-13.592-.456c-2.79-2.257-6.054-3.98-9.676-3.928h-.012a15.5,15.5,0,0,0-10.664,4.518,14.222,14.222,0,0,0-3.928,7.35A21.176,21.176,0,0,0,201.3,1310.75a3.089,3.089,0,0,0-.53,1.748,54.035,54.035,0,0,0,6.3,24.809,13.774,13.774,0,0,0,1.253,2.338,69.474,69.474,0,0,0,24.243,24.375,8.693,8.693,0,0,0-.374,7.073H211.826c-4.171-.062-4.171,6.229,0,6.169H370.37a2.044,2.044,0,0,0,.614-.062,3.085,3.085,0,0,0-.614-6.109H329.74a9.013,9.013,0,0,0,.578-3.084,9.1,9.1,0,0,0-.916-3.928,77.409,77.409,0,0,0,9.435-6.748c3.379-2.628-.818-7.6-3.976-4.71a71.41,71.41,0,0,1-8.627,6.133H235.828a63.515,63.515,0,0,1-19.713-18.508,37.515,37.515,0,0,1-3.627-6.169h0a50.983,50.983,0,0,1-2.591-6.169,40.664,40.664,0,0,1-1.663-6.169h0a47.958,47.958,0,0,1-.843-6.169h147.1a47.189,47.189,0,0,1-1.916,11.76c-1.3,3.9,4.555,5.855,5.856,1.952a53.263,53.263,0,0,0,2.735-16.8,3.085,3.085,0,0,0-3.085-3.084h-3.1c0-.062,0-.1,0-.154,2.259-1.34,4.539-2.74,5.868-5.037,1.407-2.431,1.562-5.267,1.518-8.049,2.431-1.347,4.8-2.888,6.205-5.314h.012c3.135-5.45,2.1-11.966-1.651-16.844,3.134-7.094,1.015-15.558-5.844-19.52h-.012a3.117,3.117,0,0,0-1.458-.407,15.271,15.271,0,0,0-4.386-1.229,3.093,3.093,0,0,0-1.506-.432h0a15.282,15.282,0,0,0-12.772,6.772c-6-.672-12.038,1.655-15.134,7.013a10.823,10.823,0,0,0-1.241,3.616,20.03,20.03,0,0,0-3.627-4.446c.761-2.665,1.346-5.431.627-8.134-1.617-6.014-6.892-9.837-12.917-10.7a14.974,14.974,0,0,0-12.194-9.64,14.193,14.193,0,0,0-5.906-.092Zm4.075,5.7h.012a9.245,9.245,0,0,1,8.832,6.832c.019.068.031.161.037.179a3.085,3.085,0,0,0,3.073,2.531,9.2,9.2,0,0,1,9.037,6.844h-.012a9.239,9.239,0,0,1-.47,6.1,3.086,3.086,0,0,0,1,3.724,9.273,9.273,0,0,1,3.47,5.072h-.012a9.084,9.084,0,0,1,.133,3.772,10.06,10.06,0,0,0-1.627,2.048c-1.408,2.432-1.563,5.265-1.518,8.049a16.788,16.788,0,0,0-5.615,4.519,24.669,24.669,0,0,0-3.868-5.411,35.439,35.439,0,0,0-7.916-5.663c-.2-.093-.377-.216-.578-.3a21.52,21.52,0,0,0-18.929-15.664,9.113,9.113,0,0,1,4.579-7.109,3.085,3.085,0,0,0,1.422-3.591c-.037-.117-.049-.179-.049-.179a.243.243,0,0,0-.025-.086,9.215,9.215,0,0,1,6.531-11.338,9.807,9.807,0,0,1,2.494-.327Zm31.174,66.961h-7.591a3.088,3.088,0,0,0-.928-2.182,9.237,9.237,0,0,1,3.1-15.218,3.085,3.085,0,0,0,1.928-3.338,9.242,9.242,0,0,1,5.784-10.025,3.084,3.084,0,0,0,1.928-3.337,9.24,9.24,0,0,1,1.133-6.024h.012a9.223,9.223,0,0,1,10.495-4.291,3.078,3.078,0,0,0,3.591-1.591c.037-.067.064-.129.1-.191a9.239,9.239,0,0,1,8.23-4.627l0,0a9.527,9.527,0,0,1,4.41,1.241h.025a9.209,9.209,0,0,1,3.374,12.616.344.344,0,0,1-.072.111,3.084,3.084,0,0,0,.361,3.987,9.223,9.223,0,0,1-3.1,15.206,3.084,3.084,0,0,0-1.928,3.337,9.28,9.28,0,0,1-5.784,10.025,3.085,3.085,0,0,0-1.928,3.338c.049.321.043.641.062.964H332.938Zm-47.9-38.32a15.336,15.336,0,0,1,13.351,7.772,25.745,25.745,0,0,0-3.109-.3,3.085,3.085,0,0,0-3.085,3.085v21.99a15.414,15.414,0,0,0-1.723-2.1c-1.99-1.99-4.691-2.868-7.4-3.542-.672-2.683-1.537-5.371-3.506-7.35-1.987-1.99-4.683-2.868-7.386-3.544a20.935,20.935,0,0,0-1.843-5.012,15.356,15.356,0,0,1,14.7-11Zm-25.99,38.315H230.373a9.128,9.128,0,0,1-.8-10.362,3.084,3.084,0,0,0-.53-3.819c-.074-.068-.154-.142-.229-.216a9.208,9.208,0,0,1,0-13.086,9.313,9.313,0,0,1,6.41-2.711h.012a9.117,9.117,0,0,1,6.639,2.7c.043.062.075.074.157.167a3.085,3.085,0,0,0,3.88.626,9.226,9.226,0,0,1,13.893,6.917,3.085,3.085,0,0,0,2.735,2.735,9.213,9.213,0,0,1,8.169,8.17,3.084,3.084,0,0,0,2.735,2.735,9.108,9.108,0,0,1,7.687,6.145H251.929ZM291.245,1286c9.17,1.577,16.459,8.246,16.459,17.291a16.907,16.907,0,0,1-1.3,6.169H291.245Zm-70.621,5.109a16.4,16.4,0,0,0,3.229,6.869,16.088,16.088,0,0,0-.47,11.483H207.3a15.127,15.127,0,0,1,13.326-18.351Zm129.433,45.39a3.092,3.092,0,0,0-2.446,1.517,56.721,56.721,0,0,1-4.663,6.543c-3.047,3.2,2.186,7.515,4.747,3.916a63.063,63.063,0,0,0,5.181-7.242,3.084,3.084,0,0,0-2.506-4.735,3.12,3.12,0,0,0-.313,0Zm-109.19,28.484h80.2a3.085,3.085,0,1,1,0,6.169h-80.2a3.085,3.085,0,1,1,0-6.169Zm-49.715,6.169c-4.113.21-3.8,6.379.313,6.169h5.9c4.169.074,4.193-6.209.025-6.169h-5.929A3.122,3.122,0,0,0,191.152,1371.151Z" transform="translate(-188.22 -1236.536)"/>
      </g>
    </g>
  </g>
</svg>
