<svg xmlns="http://www.w3.org/2000/svg" xmlns:xlink="http://www.w3.org/1999/xlink" width="350" height="500" viewBox="0 0 350 500">
  <defs>
    <clipPath id="clip-Mesa_de_trabajo_8">
      <rect width="350" height="500"/>
    </clipPath>
  </defs>
  <g id="Mesa_de_trabajo_8" data-name="Mesa de trabajo – 8" clip-path="url(#clip-Mesa_de_trabajo_8)">
    <rect width="350" height="500" fill="#5d89ee"/>
    <g id="idea_1_" data-name="idea (1)" transform="translate(80 155)">
      <circle id="Elipse_11" data-name="Elipse 11" cx="94" cy="94" r="94" transform="translate(1 1)" fill="#f34b50"/>
      <path id="Trazado_76" data-name="Trazado 76" d="M14.151,59.028a1.312,1.312,0,0,0,0-2.623H11.215a1.312,1.312,0,0,0,0,2.623Zm4.367-1.316a1.32,1.32,0,0,0,1.315,1.316H38.107a1.312,1.312,0,1,0,0-2.623H19.834A1.319,1.319,0,0,0,18.518,57.712Zm-11.672,0a1.312,1.312,0,0,0-1.309-1.31H5.184c-.324.868-.618,1.736-.912,2.619H5.537A1.313,1.313,0,0,0,6.846,57.716Zm-.133,64.107H5.434c.309.883.662,1.766,1.015,2.619h.265a1.31,1.31,0,1,0,0-2.619Zm16.707,0H12.392a1.312,1.312,0,1,0,0,2.623H23.42a1.312,1.312,0,1,0,0-2.623Zm5.912,0H29.1a1.312,1.312,0,0,0,0,2.623h.23a1.312,1.312,0,1,0,0-2.623Zm94.637,46.122H106.708a1.316,1.316,0,1,0,0,2.631h17.261a1.316,1.316,0,0,0,0-2.631ZM149.823,143.4h-6.546a1.316,1.316,0,1,0,0,2.631h6.546a1.316,1.316,0,0,0,0-2.631Zm-48.8,24.539h-8.6a1.316,1.316,0,0,0,0,2.631h8.6a1.316,1.316,0,0,0,0-2.631Zm54.7-24.539H155.5a1.316,1.316,0,0,0,0,2.631h.222a1.316,1.316,0,0,0,0-2.631ZM63.08,162.625H52.052a1.312,1.312,0,1,0,0,2.623H63.08a1.312,1.312,0,1,0,0-2.623Zm5.912,0h-.23a1.312,1.312,0,0,0,0,2.623h.23a1.312,1.312,0,1,0,0-2.623ZM53.513,91.719a1.312,1.312,0,0,0-1.308-1.308H49.269a1.312,1.312,0,0,0,0,2.623h2.937A1.314,1.314,0,0,0,53.513,91.719Zm-9.927-1.308H32.558a1.312,1.312,0,1,0,0,2.623H43.586a1.312,1.312,0,1,0,0-2.623Zm-15.4,1.308a1.312,1.312,0,0,0-1.308-1.308h-.229a1.312,1.312,0,1,0,0,2.623h.229A1.314,1.314,0,0,0,28.183,91.719ZM153.741,77.7a1.314,1.314,0,0,0-1.308-1.316h-17.26a1.316,1.316,0,1,0,0,2.631h17.261A1.318,1.318,0,0,0,153.741,77.7Zm10.922-1.316h-6.546a1.316,1.316,0,0,0,0,2.631h6.546a1.316,1.316,0,0,0,0-2.631Zm-35.173,0h-8.6a1.316,1.316,0,0,0,0,2.631h8.6a1.316,1.316,0,0,0,0-2.631Zm41.077,2.631a1.316,1.316,0,0,0,0-2.631h-.222a1.316,1.316,0,0,0,0,2.631Zm10.254-24.553h.515c-.324-.854-.662-1.678-1.03-2.516a1.311,1.311,0,0,0,.515,2.516Zm-4.37-1.315a1.319,1.319,0,0,0-1.315-1.308H164.108a1.312,1.312,0,1,0,0,2.623h11.028A1.321,1.321,0,0,0,176.451,53.15Zm-18.257,1.316h.23a1.312,1.312,0,0,0,0-2.623h-.23a1.312,1.312,0,1,0,0,2.623Zm12.98,58.183h-2.937a1.312,1.312,0,0,0,0,2.623h2.937a1.312,1.312,0,0,0,0-2.623Zm5.688-.006a1.317,1.317,0,1,0,0,2.634h7.151c.265-.869.515-1.751.736-2.634Zm-14.308.006H151.528a1.312,1.312,0,1,0,0,2.623h11.028a1.312,1.312,0,1,0,0-2.623Zm-16.94,0a1.312,1.312,0,1,0,0,2.623h.23a1.312,1.312,0,0,0,0-2.623ZM71.376,21.9H68.439a1.312,1.312,0,0,0,0,2.623h2.937a1.312,1.312,0,0,0,0-2.623Zm-8.619,0H51.728a1.312,1.312,0,1,0,0,2.623H62.756a1.312,1.312,0,1,0,0-2.623Zm69.124-7.4h-2.937a1.312,1.312,0,0,0,0,2.623h2.937a1.312,1.312,0,0,0,0-2.623Zm-8.62,0H112.233a1.312,1.312,0,1,0,0,2.623h11.028a1.312,1.312,0,1,0,0-2.623ZM45.816,21.9a1.312,1.312,0,1,0,0,2.623h.23a1.312,1.312,0,0,0,0-2.623Z" transform="translate(1.542 6.364)" fill="#e53946"/>
      <path id="Trazado_77" data-name="Trazado 77" d="M101.622,129.565h0a84.692,84.692,0,0,1,17.615-37.514,47.322,47.322,0,0,0,10.662-30c0-.893-.029-1.779-.078-2.66-.008-.149-.024-.3-.034-.444-.046-.713-.1-1.422-.18-2.125-.027-.243-.062-.483-.092-.725-.076-.606-.158-1.209-.256-1.808-.045-.276-.1-.549-.147-.823-.1-.56-.212-1.118-.334-1.671q-.094-.428-.2-.853-.194-.811-.416-1.61c-.077-.279-.154-.557-.237-.834-.161-.54-.333-1.075-.512-1.607-.087-.257-.17-.514-.26-.769-.2-.57-.42-1.132-.644-1.691-.083-.207-.16-.416-.245-.621q-.435-1.048-.92-2.069c-.028-.058-.052-.119-.08-.177q-.55-1.149-1.158-2.263l-.035-.061q-.574-1.047-1.2-2.061c-.094-.154-.2-.3-.292-.455-.342-.542-.691-1.078-1.055-1.605-.124-.18-.253-.357-.38-.535q-.527-.742-1.079-1.465c-.136-.177-.274-.351-.413-.525q-.571-.722-1.169-1.42-.2-.231-.4-.46-.648-.737-1.326-1.446c-.108-.113-.214-.227-.323-.338q-.782-.8-1.6-1.57c-.043-.041-.086-.082-.129-.123A47.507,47.507,0,0,0,45.554,92.051a85.012,85.012,0,0,1,16.409,32.206c.051.2.1.395.148.592.377,1.49.717,2.989,1.011,4.5.014.073.032.145.045.217h.208a4.072,4.072,0,0,0-3.858,5.482h0c0,.011.01.021.014.032a4.047,4.047,0,0,0,.205.464c.028.054.056.107.086.159a4.047,4.047,0,0,0,.267.418c.031.042.067.08.1.121a4.1,4.1,0,0,0,.687.677c.042.033.08.07.123.1.1.075.217.137.329.2s.2.114.3.163.213.094.324.135a4.047,4.047,0,0,0,.388.12c.1.027.2.056.307.075a4.116,4.116,0,0,0,.589.059c.048,0,.093.014.142.014a4.073,4.073,0,0,0-3.856,5.489l-.007,0c.006.016.015.031.021.047a3.991,3.991,0,0,0,.183.413c.04.079.081.155.125.231a4.054,4.054,0,0,0,.226.353c.064.089.137.169.208.253s.163.2.256.286a4.127,4.127,0,0,0,.494.407c.066.046.137.084.206.126a4.043,4.043,0,0,0,.445.241c.07.032.14.061.212.089a4.047,4.047,0,0,0,.545.169c.055.013.109.029.165.04a4.082,4.082,0,0,0,.757.08,4.114,4.114,0,0,0-4.091,4.118,4.061,4.061,0,0,0,.254,1.375l-.007,0c.006.017.015.031.021.048a3.937,3.937,0,0,0,.181.409c.041.081.084.16.129.239.07.119.14.235.221.345.067.092.142.176.216.262s.157.19.246.276a4.117,4.117,0,0,0,.494.408c.073.051.151.093.227.139a4.073,4.073,0,0,0,.412.224c.082.038.165.072.25.1a4.042,4.042,0,0,0,.48.149c.077.019.152.042.231.056a4.083,4.083,0,0,0,.754.076h7.147V157.4a5.587,5.587,0,0,0,.806,2.864c-.012-.007-.026-.012-.039-.019.043.074.1.141.144.213s.08.121.122.181A5.666,5.666,0,0,0,72.914,162c.066.047.132.091.2.135a5.624,5.624,0,0,0,.852.462h0a5.606,5.606,0,0,0,.939.292c.078.018.156.034.236.048a5.612,5.612,0,0,0,1.016.1H88.629a5.637,5.637,0,0,0,5.644-5.641v-3.162h7.151a4.084,4.084,0,0,0,4.034-4.869c-.014-.075-.035-.146-.053-.219a4.078,4.078,0,0,0-.156-.5c-.029-.076-.06-.151-.094-.225a4.044,4.044,0,0,0-.25-.462c-.037-.059-.069-.121-.109-.179a4.12,4.12,0,0,0-.448-.544c-.044-.045-.095-.081-.141-.123a4.113,4.113,0,0,0-.4-.33c-.083-.06-.171-.112-.259-.166-.115-.07-.232-.134-.354-.193-.1-.049-.2-.1-.308-.136-.034-.013-.066-.032-.1-.044,0,0,0,.01,0,.014a4.066,4.066,0,0,0-1.35-.25,4.1,4.1,0,0,0,2.887-1.2,4.163,4.163,0,0,0,.31-.375,4.587,4.587,0,0,0,.9-2.53v0s0-.009,0-.013a4.185,4.185,0,0,0-.075-.74c-.015-.08-.037-.156-.057-.234a4.062,4.062,0,0,0-.15-.484c-.031-.081-.063-.16-.1-.238a4.058,4.058,0,0,0-.244-.45c-.038-.061-.071-.125-.112-.184a4.091,4.091,0,0,0-.452-.548c-.031-.032-.068-.057-.1-.088a4.126,4.126,0,0,0-.452-.372c-.066-.047-.135-.088-.2-.13a4.082,4.082,0,0,0-.438-.237c-.074-.034-.147-.069-.224-.1-.047-.019-.091-.045-.14-.062,0,.006,0,.014.005.02a4.079,4.079,0,0,0-1.369-.251,4.115,4.115,0,0,0,4.11-4.11v0a4.12,4.12,0,0,0-.077-.762c-.013-.068-.032-.133-.048-.2a4.087,4.087,0,0,0-.165-.533c-.025-.065-.051-.129-.08-.192a4.077,4.077,0,0,0-.287-.528c-.023-.036-.042-.073-.066-.108a4.113,4.113,0,0,0-1.053-1.054c-.034-.023-.069-.044-.1-.066a4.078,4.078,0,0,0-.566-.307c-.037-.017-.074-.034-.112-.049-.064-.026-.123-.06-.189-.083,0,.009,0,.018.007.027a4.077,4.077,0,0,0-1.37-.251h.2A.005.005,0,0,1,101.622,129.565Z" transform="translate(15.976 6.386)" fill="#e53946"/>
      <path id="Trazado_78" data-name="Trazado 78" d="M60.991,127.386H99.447a84.692,84.692,0,0,1,17.616-37.514,47.505,47.505,0,1,0-73.687,0A84.689,84.689,0,0,1,60.991,127.386Z" transform="translate(14.949 5.359)" fill="#ededed"/>
      <path id="Trazado_79" data-name="Trazado 79" d="M40.607,76.347a1.484,1.484,0,0,1-1.363-.9,42.886,42.886,0,0,1-3.508-17,1.482,1.482,0,0,1,2.964,0A39.938,39.938,0,0,0,41.968,74.28a1.483,1.483,0,0,1-1.361,2.067ZM38.3,50.469a1.485,1.485,0,0,1-1.444-1.82,43.037,43.037,0,0,1,11.3-20.435A1.482,1.482,0,1,1,50.274,30.3,40.069,40.069,0,0,0,39.747,49.324,1.483,1.483,0,0,1,38.3,50.469ZM54.655,26.1a1.482,1.482,0,0,1-.864-2.687,42.722,42.722,0,0,1,25-8.021,1.482,1.482,0,1,1,0,2.964,39.774,39.774,0,0,0-23.278,7.467A1.474,1.474,0,0,1,54.655,26.1Zm52.572,3.524a1.477,1.477,0,0,1-1.014-.4A39.9,39.9,0,0,0,85.372,18.9a1.482,1.482,0,0,1,.484-2.925,42.851,42.851,0,0,1,22.384,11.09,1.482,1.482,0,0,1-1.014,2.563Z" transform="translate(16.373 6.784)" fill="#fff"/>
      <path id="Trazado_80" data-name="Trazado 80" d="M119.106,56.339a47.308,47.308,0,0,1-10.661,30,84.752,84.752,0,0,0-17.617,37.516H52.373c-.385-2.025-.85-4.041-1.383-6.027h0A49.58,49.58,0,0,0,94.137,92.444a86.266,86.266,0,0,1,8.281-12.135,47.517,47.517,0,0,0-.376-60.439A47.356,47.356,0,0,1,119.106,56.339Z" transform="translate(23.564 8.895)" fill="#dddce0"/>
      <path id="Trazado_81" data-name="Trazado 81" d="M80.681,104.777v6.887A5.641,5.641,0,0,1,75.04,117.3H62.569a5.641,5.641,0,0,1-5.641-5.641v-6.887Z" transform="translate(26.363 48.917)" fill="#386384"/>
      <path id="Trazado_82" data-name="Trazado 82" d="M80.432,104.777v6.887a5.64,5.64,0,0,1-5.642,5.642H62.321a5.645,5.645,0,0,1-4.871-2.8,5.65,5.65,0,0,0,2.845.771H67.9a10.5,10.5,0,0,0,10.5-10.5h2.025Z" transform="translate(26.609 48.917)" fill="#2f4867"/>
      <path id="Trazado_83" data-name="Trazado 83" d="M94.342,105.777a4.1,4.1,0,0,1-2.9,1.205,4.115,4.115,0,0,1,0,8.23H53.388a4.115,4.115,0,0,1,0-8.23,4.11,4.11,0,0,1,0-8.221,4.11,4.11,0,0,1,0-8.221h38.05a4.107,4.107,0,0,1,4.11,4.11,4.115,4.115,0,0,1-4.11,4.11,4.107,4.107,0,0,1,4.11,4.11A4.061,4.061,0,0,1,94.342,105.777Z" transform="translate(22.756 42.207)" fill="#4a749b"/>
      <path id="Trazado_84" data-name="Trazado 84" d="M76.366,92.048a.637.637,0,0,1-.633.633h-7.68a.641.641,0,0,1-.647-.633.653.653,0,0,1,.647-.647h7.68A.65.65,0,0,1,76.366,92.048Zm-10.623,0a.637.637,0,0,1-.633.633H53.016a.628.628,0,0,1-.633-.633.641.641,0,0,1,.633-.647H65.11A.65.65,0,0,1,65.743,92.048ZM76.366,100a.637.637,0,0,1-.633.633h-7.68a.641.641,0,0,1-.647-.633.653.653,0,0,1,.647-.647h7.68A.65.65,0,0,1,76.366,100Zm-10.623,0a.637.637,0,0,1-.633.633H53.016a.628.628,0,0,1-.633-.633.641.641,0,0,1,.633-.647H65.11A.65.65,0,0,1,65.743,100Zm10.623,7.951a.637.637,0,0,1-.633.633h-7.68a.641.641,0,0,1-.647-.633.653.653,0,0,1,.647-.647h7.68A.65.65,0,0,1,76.366,107.951Zm-10.623,0a.637.637,0,0,1-.633.633H53.016a.628.628,0,0,1-.633-.633.641.641,0,0,1,.633-.647H65.11A.65.65,0,0,1,65.743,107.951Z" transform="translate(24.22 42.612)" fill="#6894af"/>
      <path id="Trazado_85" data-name="Trazado 85" d="M95.469,111.03a4.116,4.116,0,0,1-4.11,4.11H53.309a4.1,4.1,0,0,1-3.863-2.737,3.919,3.919,0,0,0,1.364.237H88.859a4.115,4.115,0,0,0,4.11-4.11,4.038,4.038,0,0,0-.247-1.383A4.112,4.112,0,0,1,95.469,111.03Zm0-8.227a4.116,4.116,0,0,1-4.11,4.11H53.309a4.1,4.1,0,0,1-3.863-2.737,3.919,3.919,0,0,0,1.364.237H88.859a4.115,4.115,0,0,0,4.11-4.11,4.038,4.038,0,0,0-.247-1.383A4.111,4.111,0,0,1,95.469,102.8Zm0-8.227a4.116,4.116,0,0,1-4.11,4.11H53.309a4.1,4.1,0,0,1-3.863-2.737,3.919,3.919,0,0,0,1.364.237H88.859a4.115,4.115,0,0,0,4.11-4.11,4.038,4.038,0,0,0-.247-1.383A4.111,4.111,0,0,1,95.469,94.576Z" transform="translate(22.836 42.278)" fill="#386384"/>
      <rect id="Rectángulo_8" data-name="Rectángulo 8" width="3.952" height="42.82" transform="translate(93.191 89.926)" fill="#4a749b"/>
      <path id="Trazado_86" data-name="Trazado 86" d="M65.607,72.533a1.977,1.977,0,0,1-1.949-2.3c.335-2,3.4-19.647,8.058-24.3a13.1,13.1,0,1,1,18.52,18.52h0c-4.656,4.656-22.305,7.723-24.3,8.058A1.959,1.959,0,0,1,65.607,72.533ZM80.976,46.044a9.083,9.083,0,0,0-6.466,2.678c-2.49,2.49-5.058,12.254-6.447,19.379,7.125-1.39,16.888-3.957,19.379-6.448h0a9.144,9.144,0,0,0-6.466-15.609Z" transform="translate(29.522 19.369)" fill="#4a749b"/>
      <path id="Trazado_87" data-name="Trazado 87" d="M73.03,71.469a1.966,1.966,0,0,1-.326-.027c-1.755-.294-17.265-2.99-21.391-7.117h0A11.7,11.7,0,1,1,67.862,47.777c4.126,4.126,6.823,19.635,7.117,21.39a1.977,1.977,0,0,1-1.949,2.3ZM59.587,48.3a7.749,7.749,0,0,0-5.48,13.23h0c2.1,2.1,10.3,4.279,16.461,5.5-1.223-6.162-3.4-14.361-5.5-16.461A7.7,7.7,0,0,0,59.587,48.3Z" transform="translate(22.1 20.433)" fill="#4a749b"/>
    </g>
  </g>
</svg>
