<svg xmlns="http://www.w3.org/2000/svg" xmlns:xlink="http://www.w3.org/1999/xlink" width="2126" height="1347" viewBox="0 0 2126 1347">
  <defs>
    <linearGradient id="linear-gradient" x1="0.11" y1="-0.319" x2="0.932" y2="1.812" gradientUnits="objectBoundingBox">
      <stop offset="0" stop-color="#fff" stop-opacity="0.2"/>
      <stop offset="1" stop-color="#fff" stop-opacity="0"/>
    </linearGradient>
    <linearGradient id="linear-gradient-2" x1="0.104" y1="0.3" x2="0.968" y2="0.739" xlink:href="#linear-gradient"/>
    <clipPath id="clip-Personalizado_1">
      <rect width="2126" height="1347"/>
    </clipPath>
  </defs>
  <g id="Personalizado_1" data-name="Personalizado – 1" clip-path="url(#clip-Personalizado_1)">
    <rect width="2126" height="1347" fill="#ff5c5c"/>
    <g id="SvgjsG1025" transform="matrix(0.819, -0.574, 0.574, 0.819, 422.644, 1009.247)">
      <g id="Grupo_1" data-name="Grupo 1" transform="translate(0 0.916)">
        <path id="Trazado_1" data-name="Trazado 1" d="M16.383,43.58C35.66,58.86,48.155,79.993,51.546,103.412a104.237,104.237,0,0,0,1.606-16.064A108.865,108.865,0,0,0,12.242,2.241l4.105,21.6a54.761,54.761,0,0,1,0,19.741Z" transform="translate(464.479 49.363)" fill="#fff" opacity="0.2"/>
        <path id="Trazado_2" data-name="Trazado 2" d="M812,145.415,635.295,115.928,584.031,39.14a71.29,71.29,0,0,0-59.4-31.808H260.708a71.307,71.307,0,0,0-59.4,31.772l-51.727,77.573L40.554,143.952A53.477,53.477,0,0,0,0,195.858v89.675a78.314,78.314,0,0,0,23.061,55.69,79.433,79.433,0,0,0,55.726,23.1h47.979a89.247,89.247,0,0,0,174.888,0H537.266a89.269,89.269,0,0,0,174.924,0h79.965a35.52,35.52,0,0,0,31.986-19.741l28.88-57.761a17.772,17.772,0,0,0,1.428-3.927l1.856-8a17.518,17.518,0,0,0,.464-4.034V198.214A53.369,53.369,0,0,0,812,145.38Z" transform="translate(0 242.542)" fill="#303c42"/>
        <path id="Trazado_3" data-name="Trazado 3" d="M41.965,24.1A35.627,35.627,0,0,1,71.738,8.251H335.694a35.563,35.563,0,0,1,29.7,15.886L402.38,79.648H4.981L42,24.136Z" transform="translate(189.006 277.359)" fill="#bdddf4"/>
        <path id="Trazado_4" data-name="Trazado 4" d="M41.965,24.1A35.627,35.627,0,0,1,71.738,8.251H335.694a35.563,35.563,0,0,1,29.7,15.886L402.38,79.648H4.981L42,24.136Z" transform="translate(189.006 277.359)" fill="url(#linear-gradient)"/>
        <circle id="Elipse_1" data-name="Elipse 1" cx="53.548" cy="53.548" r="53.548" transform="translate(160.644 535.465)" fill="#b4b4b4"/>
        <circle id="Elipse_2" data-name="Elipse 2" cx="53.548" cy="53.548" r="53.548" transform="translate(571.18 535.465)" fill="#b4b4b4"/>
        <path id="Trazado_5" data-name="Trazado 5" d="M786.289,129.627l-28.916,59.831H677.408a89.269,89.269,0,0,0-174.924,0H266.872a89.269,89.269,0,0,0-174.924,0H44.041A43.317,43.317,0,0,1,13.59,176.821,42.874,42.874,0,0,1,.917,146.37V56.695a17.849,17.849,0,0,1,13.53-17.35L128.076,11H588.482L771.367,41.487a17.77,17.77,0,0,1,14.922,17.6v70.576Z" transform="translate(34.782 381.705)" fill="#b4b4b4"/>
        <path id="Trazado_6" data-name="Trazado 6" d="M77.655,14.871a52.964,52.964,0,0,1,7.961,27.738A53.613,53.613,0,0,1,32.068,96.157,53.293,53.293,0,0,1,4.33,88.2,53.405,53.405,0,1,0,77.655,14.871Zm410.535,0a52.964,52.964,0,0,1,7.961,27.738A53.271,53.271,0,0,1,414.865,88.2,53.405,53.405,0,1,0,488.19,14.871Z" transform="translate(164.276 528.555)" fill="#010101" opacity="0.1"/>
        <path id="Trazado_7" data-name="Trazado 7" d="M702.218,84.23c-7.14,0-13.173-4.427-16.279-10.852a106.525,106.525,0,0,0-79.073-58.831,84.4,84.4,0,0,0-33.842,0,106.525,106.525,0,0,0-79.073,58.832A18.242,18.242,0,0,1,477.673,84.23H291.647A18.206,18.206,0,0,1,275.44,73.414a106.525,106.525,0,0,0-79.108-58.9,91.256,91.256,0,0,0-16.921-1.642,88.314,88.314,0,0,0-16.921,1.714,106.525,106.525,0,0,0-79.073,58.8A18.349,18.349,0,0,1,67.1,84.266H54.465c-11.495,0-32.771-4.5-40.911-12.637A42.827,42.827,0,0,1,.917,41.142v35.7a43.147,43.147,0,0,0,43.088,43.088H91.984a89.247,89.247,0,0,1,174.888,0H502.484a89.269,89.269,0,0,1,174.924,0h79.965L786.289,60.1V24.4L762.228,74.235a17.671,17.671,0,0,1-15.922,10H702.218Z" transform="translate(34.782 451.235)" fill="#010101" opacity="0.1"/>
        <path id="Trazado_8" data-name="Trazado 8" d="M149.671,786.308a71.523,71.523,0,0,1-71.4-71.433V304.339c0-23.918-10.245-47.158-28.916-65.507A140.9,140.9,0,0,1,6.876,137.626c0-42.41,19.135-82.464,52.477-109.845a17.849,17.849,0,0,1,28.63,9.389L104.3,101.214a20.491,20.491,0,0,0,10.71,13.637,53.56,53.56,0,0,0,59.9-10.6l4.284-4.284a20.836,20.836,0,0,0,5.747-18.92v-.178L173.66,22.105a17.778,17.778,0,0,1,5.89-16.886,18.1,18.1,0,0,1,17.6-3.32,143.973,143.973,0,0,1,95.316,135.762,141.039,141.039,0,0,1-42.482,101.206c-18.67,18.349-28.916,41.589-28.916,65.507V714.91a71.5,71.5,0,0,1-71.4,71.433Z" transform="translate(260.865 -0.916)" fill="#303c42"/>
        <path id="Trazado_9" data-name="Trazado 9" d="M26.682,27.338A105.49,105.49,0,0,0,39.64,163.1c25.453,25.1,39.518,57.368,39.518,90.96V664.6a35.734,35.734,0,0,0,71.4,0V254.06c0-33.557,14.065-65.864,39.554-90.96a105.544,105.544,0,0,0,31.843-75.753A108.865,108.865,0,0,0,181.043,2.241l4.105,21.6a56.368,56.368,0,0,1-15.458,51.049l-4.32,4.284A89.247,89.247,0,0,1,65.165,96.95a55.761,55.761,0,0,1-30.237-37.2L26.646,27.338Z" transform="translate(295.678 49.363)" fill="#ccc"/>
        <path id="Trazado_10" data-name="Trazado 10" d="M109.875,2.241l1.357,7.247a108.434,108.434,0,0,1,13.744,52.049A105.544,105.544,0,0,1,93.132,137.29c-25.525,25.1-39.554,57.368-39.554,90.96V638.786a35.758,35.758,0,0,1-35.7,35.7c-2.927,0-5.5-1-8.211-1.678,3.784,15.636,17.242,27.488,34.021,27.488a35.735,35.735,0,0,0,35.7-35.7V254.06c0-33.557,14.065-65.864,39.554-90.96a105.544,105.544,0,0,0,31.843-75.753A108.865,108.865,0,0,0,109.875,2.241Z" transform="translate(366.846 49.363)" fill="#010101" opacity="0.1"/>
        <path id="Trazado_11" data-name="Trazado 11" d="M812,388.874,635.295,359.387,584.031,282.6a71.29,71.29,0,0,0-59.4-31.808h-23.99a102.75,102.75,0,0,1,10.138-11.959A140.9,140.9,0,0,0,553.33,137.626,143.973,143.973,0,0,0,458.015,1.9a18.1,18.1,0,0,0-17.6,3.32,17.778,17.778,0,0,0-5.89,16.885l11.245,58.76.036.178a20.777,20.777,0,0,1-5.712,18.92l-4.32,4.284a53.62,53.62,0,0,1-59.938,10.6,20.491,20.491,0,0,1-10.674-13.637L348.848,37.17a17.849,17.849,0,0,0-28.595-9.389,141.447,141.447,0,0,0-10.031,211.051A102.565,102.565,0,0,1,320.4,250.791H260.708a71.308,71.308,0,0,0-59.4,31.772l-51.727,77.573L40.554,387.41A53.477,53.477,0,0,0,0,439.316v89.675a78.314,78.314,0,0,0,23.061,55.69,79.433,79.433,0,0,0,55.726,23.1h47.979a89.247,89.247,0,0,0,174.888,0h37.484v107.1a71.4,71.4,0,1,0,142.795,0v-107.1h55.333a89.269,89.269,0,0,0,174.924,0h79.965a35.52,35.52,0,0,0,31.986-19.741l28.88-57.761a17.772,17.772,0,0,0,1.428-3.927l1.856-8a17.517,17.517,0,0,0,.464-4.034V441.672A53.369,53.369,0,0,0,812,388.838Z" transform="translate(0 -0.916)" fill="url(#linear-gradient-2)"/>
      </g>
    </g>
    <g id="layer1" transform="translate(618.541 1750.593) rotate(-170)">
      <g id="g16697" transform="translate(0.987 1025.536)">
        <path id="path6923" d="M895.413,1332.018a295.135,295.135,0,0,0,11.993-83.162H190.749c.144,102.624,53.933,198.626,144,259.492H763.907a348.673,348.673,0,0,0,44.866-36.106c47.21-39.42,71-88.195,86.639-140.224Z" transform="translate(-108.698 -892.413)" fill="#e4c68a"/>
        <path id="path6909" d="M298.17,1237.062a68.159,68.159,0,0,0-17.358,2.2h0a64.876,64.876,0,0,0-45.867,79.446c.162.682.37,1.36.57,2.011A64.879,64.879,0,0,0,228.99,1429.5a64.7,64.7,0,0,0,21.033,78.3,64.748,64.748,0,0,0,60.058,90.842c.13.65.227,1.332.38,1.979a64.843,64.843,0,0,0,9.756,20.591H426.207a64.879,64.879,0,0,0,9.63-54.17c-.195-.65-.412-1.3-.633-1.947a64.928,64.928,0,0,0,6.525-108.842,64.787,64.787,0,0,0-20.97-78.3,64.719,64.719,0,0,0-60.058-90.785c-.13-.71-.292-1.392-.445-2.074a64.879,64.879,0,0,0-62.086-48.085Z" transform="translate(199.661 -1221.709)" fill="#a5bc79"/>
        <path id="path6911" d="M430.224,1239.636a64.893,64.893,0,0,0-57.715,32.437c-.327.619-.642,1.23-.95,1.849a64.909,64.909,0,0,0-81.6,72.286,64.882,64.882,0,0,0-40.546,70.258,64.763,64.763,0,0,0-21.73,106.691c-.367.548-.727,1.135-1.077,1.719a64.838,64.838,0,0,0-6.019,14.38H420.72a64.857,64.857,0,0,0,.759-23.635,64.882,64.882,0,0,0,40.546-70.258,64.688,64.688,0,0,0,21.73-106.687c.412-.58.811-1.167,1.2-1.786a64.874,64.874,0,0,0-23.758-88.567h-.065a64.913,64.913,0,0,0-30.915-8.679Z" transform="translate(345.247 -1139.625)" fill="#78b591"/>
        <circle id="circle6913" cx="97.31" cy="97.31" r="97.31" transform="translate(328.91 152.738)" fill="#ffab5f"/>
        <path id="path6915" d="M288.06,1244.86a97.134,97.134,0,0,0-91.672,129.746h183.28A96.981,96.981,0,0,0,288.06,1244.86Z" transform="translate(-108.679 -993.968)" fill="#d8332c"/>
        <path id="path6917" d="M257.771,1243.048a64.88,64.88,0,0,0-44.917,110.74q.749.727,1.522,1.462a64.872,64.872,0,0,0,9.947,78.873H518.47a64.667,64.667,0,0,0-57.715-64.62,64.661,64.661,0,0,0-57.334-57.34,64.74,64.74,0,0,0-97.437-48.592c-.457-.517-.921-1.068-1.395-1.585a64.866,64.866,0,0,0-46.817-19.013Z" transform="translate(-37.532 -1050.77)" fill="#78b591"/>
        <path id="path6919" d="M221.589,1238.476a16.218,16.218,0,0,0-16.028,20.654l76.214,284.456a16.228,16.228,0,0,0,31.361-8.362L236.921,1250.7a16.214,16.214,0,0,0-15.332-12.225Z" transform="translate(278.314 -1175.767)" fill="#86a151"/>
        <path id="path6921" d="M204.416,1243.86v162.182H311.482a108.387,108.387,0,0,0,11.911-48.654c0-62.7-53.29-113.528-118.976-113.528Z" transform="translate(263.016 -1024.053)" fill="#ef645e"/>
        <path id="path6925" d="M206.97,1250.36a16.218,16.218,0,1,0,0,32.437H449.992a16.218,16.218,0,1,0,0-32.437Z" transform="translate(-108.681 -829.321)" fill="#efdebb"/>
        <rect id="rect6927" width="486.549" height="64.872" rx="1" transform="translate(197.019 616.059)" fill="#d9ae58"/>
        <path id="rect7048" d="M205.92,1256.86a32.436,32.436,0,1,1,0,64.873H330.155a32.436,32.436,0,1,0,0-64.873Z" transform="translate(301.999 -640.801)" fill="#bf9540"/>
        <path id="path6937" d="M361.546,1241.082a16.211,16.211,0,0,0-14.318,8.362L212.858,1482.2a16.22,16.22,0,1,0,28.066,16.218l134.434-232.757a16.217,16.217,0,0,0-13.811-24.58Z" transform="translate(413.308 -1107.125)" fill="#407556"/>
        <path id="path6945" d="M211.481,1244.429a16.22,16.22,0,0,0-11.277,27.814l124.868,124.867a16.219,16.219,0,1,0,22.936-22.939L223.138,1249.308a16.217,16.217,0,0,0-11.657-4.879Z" transform="translate(8.565 -1007.356)" fill="#407556"/>
        <path id="path6949" d="M207.948,1252.363c-21.933-.323-21.933,32.75,0,32.437H354.99c21.932.327,21.932-32.75,0-32.437Z" transform="translate(-85.137 -770.407)" fill="#efdebb"/>
        <path id="path7043" d="M369.118,1248.86a263.586,263.586,0,0,1-13.621,83.183c-17.7,52.029-44.587,100.778-98.007,140.2a390.513,390.513,0,0,1-50.746,36.109H336.492a390.421,390.421,0,0,0,50.745-36.109c53.419-39.421,80.308-88.167,98.007-140.2a263.622,263.622,0,0,0,13.621-83.183Z" transform="translate(299.896 -892.294)" fill="#cdaa64"/>
        <path id="path6953" d="M188.743,1258.86h846.4" transform="translate(-171.772 -577.928)" fill="none"/>
        <path id="path14053" d="M674.271,1237.856c-36.153,10.106-56.1,47.572-50.756,85.314-17.542,13.856-28.946,34.133-30.27,56.258-31.58,6.925-58.158,29.072-71.755,59.542-19.509-11.162-43.327-11.463-64.546-2.261-13.252-11.175-28.749-19.7-45.949-19.45h-.058a72.163,72.163,0,0,0-50.641,22.373,71.4,71.4,0,0,0-18.654,36.394c-52.347,4.7-93.844,50.253-93.844,106.012a110.2,110.2,0,0,0,2.517,21.956,15.757,15.757,0,0,0-2.517,8.649c.059,43.028,10.923,84.51,29.927,122.84a69.267,69.267,0,0,0,5.951,11.572c26.054,47.245,65.259,88.885,115.13,120.688a44.72,44.72,0,0,0-1.776,35.021h-96.7c-19.81-.308-19.81,30.84,0,30.545h752.923a9.27,9.27,0,0,0,2.918-.308c17.345-3.645,14.776-30.271-2.918-30.247H860.3a44.853,44.853,0,0,0-1.6-34.719,368.754,368.754,0,0,0,44.8-33.409c16.045-13.016-3.883-37.632-18.883-23.323a339.663,339.663,0,0,1-40.971,30.363H414.31c-39.466-25.143-70.879-56.536-93.615-91.636-7.044-10.566-13.189-20.873-17.224-30.545h0a258.394,258.394,0,0,1-12.3-30.545c-3.174-10.585-6.759-21.476-7.9-30.545h0a247.1,247.1,0,0,1-4.005-30.545H977.844c-1.289,19.721-3.105,39.413-9.1,58.228-6.18,19.331,21.63,29,27.81,9.665a273.93,273.93,0,0,0,12.989-83.166c0-8.434-6.559-15.269-14.649-15.272H980.19c-.01-.3.009-.516,0-.765,10.727-6.634,21.554-13.565,27.867-24.938,6.683-12.035,7.42-26.073,7.21-39.85,11.545-6.666,22.792-14.3,29.469-26.312h.059c14.887-26.984,9.967-59.244-7.839-83.4,14.885-35.127,4.819-77.032-27.752-96.651h-.059a14.3,14.3,0,0,0-6.924-2.016,70.191,70.191,0,0,0-20.828-6.084,14.2,14.2,0,0,0-7.153-2.138h0c-24.561-.583-46.683,12.8-60.655,33.528-28.514-3.323-57.17,8.193-71.871,34.722a55.147,55.147,0,0,0-5.894,17.9c-4.419-8.2-10.643-15.362-17.224-22.012,3.615-13.194,6.39-26.888,2.976-40.27-7.681-29.777-32.729-48.708-61.342-52.978-9.428-26.295-31.349-43.918-57.908-47.728-10.912-2.109-16.446-2.443-28.049-.46Zm19.352,28.215h.058c19.745.308,36.779,13.965,41.943,33.829.088.334.147.795.176.887a14.822,14.822,0,0,0,14.592,12.529c20.125-.308,37.689,13.624,42.916,33.885h-.059a47.558,47.558,0,0,1-2.232,30.184,15.675,15.675,0,0,0,4.749,18.437,46.026,46.026,0,0,1,16.48,25.114h-.059a46.85,46.85,0,0,1,.63,18.679,49.531,49.531,0,0,0-7.725,10.142c-6.685,12.039-7.421,26.07-7.21,39.85-10.134,5.879-19.893,12.687-26.665,22.373a122.118,122.118,0,0,0-18.368-26.785c-8.931-9.133-26.177-22.505-37.595-28.043-.943-.457-1.79-1.069-2.745-1.493-11.479-42.9-47.314-73.828-89.9-77.558,1.365-14.472,9.031-27.719,21.744-35.2a15.564,15.564,0,0,0,6.752-17.782c-.175-.583-.234-.887-.234-.887a1.264,1.264,0,0,0-.117-.427c-6.319-24.6,7.437-49.525,31.014-56.142a44.83,44.83,0,0,1,11.845-1.619Zm148.042,331.543H805.615a15.617,15.617,0,0,0-4.406-10.8,47.2,47.2,0,0,1-7.324-55.659,44.613,44.613,0,0,1,22.03-19.688,15.374,15.374,0,0,0,9.156-16.527,47.46,47.46,0,0,1,5.378-29.89,44.621,44.621,0,0,1,22.088-19.748,15.372,15.372,0,0,0,9.155-16.524,47.4,47.4,0,0,1,5.379-29.827h.058c10.071-18.172,30.452-26.888,49.84-21.241a14.418,14.418,0,0,0,17.052-7.874c.176-.338.3-.642.457-.947,8.045-14.541,22.983-23.3,39.082-22.909l-.011-.02a43.857,43.857,0,0,1,20.943,6.14h.117c21.075,12.75,28.162,40.436,16.022,62.467a1.728,1.728,0,0,1-.343.549,15.752,15.752,0,0,0,1.716,19.742,47.1,47.1,0,0,1,7.382,55.543,44.5,44.5,0,0,1-22.088,19.748,15.373,15.373,0,0,0-9.155,16.524,47.466,47.466,0,0,1-5.436,29.89,44.467,44.467,0,0,1-22.03,19.748,15.373,15.373,0,0,0-9.156,16.524c.234,1.589.206,3.175.293,4.773H875.482ZM614.2,1407.881c26.923,0,50.692,15.226,63.4,38.479-4.9-.609-9.711-1.493-14.763-1.493-8.09,0-14.648,6.835-14.649,15.273v108.878a75.516,75.516,0,0,0-8.183-10.38c-9.451-9.857-22.279-14.2-35.134-17.54-3.193-13.287-7.3-26.593-16.651-36.394-9.438-9.847-22.241-14.2-35.077-17.543-2.077-8.626-4.709-17.156-8.754-24.816,9.248-32.068,37.244-54.447,69.81-54.47ZM490.771,1597.588H388.4a46.753,46.753,0,0,1-3.777-51.3,15.756,15.756,0,0,0-2.517-18.914c-.351-.334-.732-.7-1.087-1.069a46.969,46.969,0,0,1,0-64.791,43.356,43.356,0,0,1,30.442-13.422l0,0h.059a42.427,42.427,0,0,1,31.529,13.363c.205.308.358.368.744.824a14.233,14.233,0,0,0,18.425,3.1,42.507,42.507,0,0,1,53.445,6.978,46.526,46.526,0,0,1,12.531,27.265,14.971,14.971,0,0,0,12.989,13.542A43.227,43.227,0,0,1,567.45,1526.3a46.581,46.581,0,0,1,12.531,27.322,14.975,14.975,0,0,0,12.989,13.545,43.222,43.222,0,0,1,26.265,13.125,45.945,45.945,0,0,1,10.243,17.3H490.771Zm186.714-116.147c43.55,7.812,78.165,40.83,78.165,85.612,0,10.735-2.546,20.817-6.18,30.545H677.485Zm-335.377,25.3a82.8,82.8,0,0,0,15.336,34.008c-7.376,18.493-8.322,38.787-2.233,56.854H278.821a79.435,79.435,0,0,1-1.717-15.332c0-39.413,28.348-71.243,65-75.529Zm614.675,224.741a14.621,14.621,0,0,0-11.616,7.514,281.445,281.445,0,0,1-22.145,32.4c-14.468,15.839,10.384,37.208,22.546,19.387a312.341,312.341,0,0,0,24.605-35.858c6.073-9.983-.568-23.065-11.9-23.442a13.817,13.817,0,0,0-1.488,0ZM438.243,1872.509H819.109c8.368,0,14.649,6.547,14.649,15.273s-6.281,15.273-14.649,15.273H438.243c-8.368,0-14.649-6.554-14.649-15.273S429.874,1872.509,438.243,1872.509Zm-236.1,30.545a14.117,14.117,0,0,0-10.931,5.592c-6.729,8.745-2.23,25.731,12.419,24.954h28.039c19.8.364,19.914-30.744.117-30.545H203.634A13.817,13.817,0,0,0,202.146,1903.055Z" transform="translate(-188.22 -1236.538)"/>
      </g>
    </g>
  </g>
</svg>
