<svg xmlns="http://www.w3.org/2000/svg" xmlns:xlink="http://www.w3.org/1999/xlink" width="350" height="500" viewBox="0 0 350 500">
  <defs>
    <clipPath id="clip-Mesa_de_trabajo_9">
      <rect width="350" height="500"/>
    </clipPath>
  </defs>
  <g id="Mesa_de_trabajo_9" data-name="Mesa de trabajo – 9" clip-path="url(#clip-Mesa_de_trabajo_9)">
    <rect width="350" height="500" fill="#ee5d85"/>
    <g id="search" transform="translate(87 162)">
      <rect id="Rectángulo_9" data-name="Rectángulo 9" width="170.384" height="170.384" rx="30" transform="translate(2.571 2.572)" fill="#fff"/>
      <path id="Trazado_88" data-name="Trazado 88" d="M177.884,17.787V38.357H7.5V17.787A10.284,10.284,0,0,1,17.785,7.5H167.6a10.284,10.284,0,0,1,10.285,10.285Z" transform="translate(-4.929 -4.93)" fill="#676e87"/>
      <rect id="Rectángulo_10" data-name="Rectángulo 10" width="15.427" height="15.427" rx="7" transform="translate(17.998 48.853)" fill="#dedede"/>
      <rect id="Rectángulo_11" data-name="Rectángulo 11" width="15.427" height="15.427" rx="7" transform="translate(17.998 79.707)" fill="#dedede"/>
      <rect id="Rectángulo_12" data-name="Rectángulo 12" width="11.536" height="25.609" transform="translate(115.027 102.614) rotate(-45)" fill="#dedede"/>
      <path id="Trazado_89" data-name="Trazado 89" d="M411.856,351.856h0a9.228,9.228,0,0,1-13.051,0l-23-23a1.154,1.154,0,0,1,0-1.631l11.42-11.42a1.154,1.154,0,0,1,1.631,0l23,23A9.228,9.228,0,0,1,411.856,351.856Z" transform="translate(-246.746 -207.315)" fill="#dedede"/>
      <circle id="Elipse_12" data-name="Elipse 12" cx="37.118" cy="37.118" r="37.118" transform="translate(64.729 44.16)" fill="#dedede"/>
      <rect id="Rectángulo_13" data-name="Rectángulo 13" width="15.427" height="15.427" rx="7" transform="translate(17.998 110.561)" fill="#dedede"/>
      <rect id="Rectángulo_14" data-name="Rectángulo 14" width="15.427" height="15.427" rx="7" transform="translate(17.998 141.415)" fill="#dedede"/>
      <rect id="Rectángulo_15" data-name="Rectángulo 15" width="11.536" height="25.609" transform="translate(109.885 102.614) rotate(-45)" fill="#595f74"/>
      <path id="Trazado_90" data-name="Trazado 90" d="M339.39,275.526l-2.571,2.571,8.767,8.767a6.537,6.537,0,0,1,0,9.245l-.963.963,4.718,4.718,8.157-8.157Z" transform="translate(-221.349 -181.069)" fill="#4a4f60"/>
      <path id="Trazado_91" data-name="Trazado 91" d="M396.856,351.856h0a9.229,9.229,0,0,1-13.051,0l-23-23a1.154,1.154,0,0,1,0-1.631l11.42-11.42a1.154,1.154,0,0,1,1.631,0l23,23A9.228,9.228,0,0,1,396.856,351.856Z" transform="translate(-236.888 -207.315)" fill="#ffcd85"/>
      <path id="Trazado_92" data-name="Trazado 92" d="M416.029,338.8l-23-23a1.154,1.154,0,0,0-1.631,0l-1.755,1.756L410.887,338.8a9.228,9.228,0,0,1,0,13.051h0a9.185,9.185,0,0,1-3.954,2.338,9.225,9.225,0,0,0,9.1-2.338h0a9.228,9.228,0,0,0,0-13.051Z" transform="translate(-256.062 -207.315)" fill="#ffc166"/>
      <circle id="Elipse_13" data-name="Elipse 13" cx="37.118" cy="37.118" r="37.118" transform="translate(59.587 44.16)" fill="#676e87"/>
      <path id="Trazado_93" data-name="Trazado 93" d="M303.4,139.678A37.03,37.03,0,0,0,274.582,128.9a37.118,37.118,0,0,1,0,74.057A37.118,37.118,0,0,0,303.4,139.678Z" transform="translate(-180.448 -84.647)" fill="#595f74"/>
      <path id="Trazado_94" data-name="Trazado 94" d="M249.52,204.523a26.913,26.913,0,1,1,0-38.06,26.913,26.913,0,0,1,0,38.06Z" transform="translate(-133.786 -104.215)" fill="#d9f0ff"/>
      <path id="Trazado_95" data-name="Trazado 95" d="M20.4,128.56H31.026A4.977,4.977,0,0,0,36,123.589V112.961a4.977,4.977,0,0,0-4.971-4.971H20.4a4.977,4.977,0,0,0-4.971,4.971v10.628A4.977,4.977,0,0,0,20.4,128.56Zm.171-15.427H30.854v10.285H20.569ZM96.7,110.749a29.471,29.471,0,1,0-20.849-8.622A29.471,29.471,0,0,0,96.7,110.749Zm-.289-31.042H72.43a24.315,24.315,0,0,1,3.02-10.285H96.416a2.571,2.571,0,1,0,0-5.142H79.288c.069-.071.134-.145.2-.215A24.342,24.342,0,1,1,113.918,98.49h0A24.329,24.329,0,0,1,72.637,84.849H96.416a2.571,2.571,0,0,0,0-5.142ZM39.3,16.088a2.571,2.571,0,1,0,2.571,2.571A2.571,2.571,0,0,0,39.3,16.088Zm7.714,71.333a2.571,2.571,0,0,0,2.571,2.571H58a39.711,39.711,0,0,0,60.251,24.622l3.671,3.671a3.727,3.727,0,0,0,.177,5.072l23,23a11.8,11.8,0,1,0,16.687-16.687l-23-23a3.728,3.728,0,0,0-5.071-.177l-3.671-3.671a39.691,39.691,0,0,0-61.4-49.607q-.387.387-.76.782h-18.3a2.571,2.571,0,0,0,0,5.142H63.763A39.717,39.717,0,0,0,57.2,84.849H49.582a2.571,2.571,0,0,0-2.571,2.571Zm88.507,24.519,0,0,0,0,.626-.626,22,22a6.664,6.664,0,0,1,0,9.415h0a6.656,6.656,0,0,1-9.414,0l-22-22Zm-5.451-1.821-4.521,4.521-3.127-3.127q1.208-1.029,2.352-2.169t2.169-2.352ZM72.276,56.849A34.439,34.439,0,1,1,62.113,81.278,34.547,34.547,0,0,1,72.276,56.849ZM162.67,0H12.856A12.87,12.87,0,0,0,0,12.856V162.671a12.87,12.87,0,0,0,12.856,12.856H162.67a12.87,12.87,0,0,0,12.856-12.856V12.856A12.87,12.87,0,0,0,162.67,0Zm7.714,162.67a7.722,7.722,0,0,1-7.714,7.714H12.856a7.722,7.722,0,0,1-7.714-7.714V36H170.384Zm0-131.816H5.142v-18a7.722,7.722,0,0,1,7.714-7.714H162.67a7.722,7.722,0,0,1,7.714,7.714ZM29.012,16.088a2.571,2.571,0,1,0,2.571,2.571,2.571,2.571,0,0,0-2.571-2.571ZM20.4,97.705H31.026A4.977,4.977,0,0,0,36,92.734V82.107a4.977,4.977,0,0,0-4.971-4.971H20.4a4.977,4.977,0,0,0-4.971,4.971V92.734A4.977,4.977,0,0,0,20.4,97.705Zm.171-15.427H30.854V92.563H20.569ZM20.4,159.414H31.026A4.977,4.977,0,0,0,36,154.443V143.815a4.977,4.977,0,0,0-4.971-4.971H20.4a4.977,4.977,0,0,0-4.971,4.971v10.628a4.977,4.977,0,0,0,4.971,4.971Zm.171-15.427H30.854v10.285H20.569ZM20.4,66.851H31.026A4.977,4.977,0,0,0,36,61.88V51.253a4.977,4.977,0,0,0-4.971-4.971H20.4a4.977,4.977,0,0,0-4.971,4.971V61.88A4.977,4.977,0,0,0,20.4,66.851Zm.171-15.427H30.854V61.709H20.569ZM49.582,151.7h87.377a2.571,2.571,0,1,0,0-5.142H49.582a2.571,2.571,0,0,0,0,5.142ZM18.727,16.088A2.571,2.571,0,1,0,21.3,18.659a2.571,2.571,0,0,0-2.571-2.571ZM49.582,120.846h15.98a2.571,2.571,0,1,0,0-5.142H49.582a2.571,2.571,0,0,0,0,5.142Z" fill="#272a33"/>
    </g>
  </g>
</svg>
