<svg xmlns="http://www.w3.org/2000/svg" xmlns:xlink="http://www.w3.org/1999/xlink" width="350" height="250" viewBox="0 0 350 250">
  <defs>
    <linearGradient id="linear-gradient" x1="0.11" y1="-0.319" x2="0.932" y2="1.812" gradientUnits="objectBoundingBox">
      <stop offset="0" stop-color="#fff" stop-opacity="0.2"/>
      <stop offset="1" stop-color="#fff" stop-opacity="0"/>
    </linearGradient>
    <linearGradient id="linear-gradient-2" x1="0.104" y1="0.3" x2="0.968" y2="0.739" xlink:href="#linear-gradient"/>
    <clipPath id="clip-Mesa_de_trabajo_1">
      <rect width="350" height="250"/>
    </clipPath>
  </defs>
  <g id="Mesa_de_trabajo_1" data-name="Mesa de trabajo – 1" clip-path="url(#clip-Mesa_de_trabajo_1)">
    <rect width="350" height="250"/>
    <g id="SvgjsG1025" transform="translate(71.101 31.838)">
      <g id="Grupo_2" data-name="Grupo 2" transform="translate(0 0.916)">
        <path id="Trazado_12" data-name="Trazado 12" d="M13.245,12.263a22.647,22.647,0,0,1,8.524,14.5,25.269,25.269,0,0,0,.389-3.894A26.391,26.391,0,0,0,12.242,2.241l1,5.236a13.275,13.275,0,0,1,0,4.786Z" transform="translate(103.326 10.269)" fill="#fff" opacity="0.2"/>
        <path id="Trazado_13" data-name="Trazado 13" d="M196.848,40.807,154.01,33.659,141.582,15.044a17.282,17.282,0,0,0-14.4-7.711H63.2a17.287,17.287,0,0,0-14.4,7.7L36.261,33.84,9.831,40.452A12.964,12.964,0,0,0,0,53.035V74.775a18.985,18.985,0,0,0,5.591,13.5,19.256,19.256,0,0,0,13.509,5.6H30.731a21.636,21.636,0,0,0,42.4,0h57.117a21.641,21.641,0,0,0,42.405,0h19.385a8.611,8.611,0,0,0,7.754-4.786l7-14a4.31,4.31,0,0,0,.346-.952l.45-1.939a4.246,4.246,0,0,0,.113-.978V53.606A12.938,12.938,0,0,0,196.848,40.8Z" transform="translate(0 53.243)" fill="#303c42"/>
        <path id="Trazado_14" data-name="Trazado 14" d="M13.947,12.093A8.637,8.637,0,0,1,21.165,8.25H85.154a8.621,8.621,0,0,1,7.2,3.851l8.966,13.457H4.981L13.956,12.1Z" transform="translate(42.045 60.988)" fill="#bdddf4"/>
        <path id="Trazado_15" data-name="Trazado 15" d="M13.947,12.093A8.637,8.637,0,0,1,21.165,8.25H85.154a8.621,8.621,0,0,1,7.2,3.851l8.966,13.457H4.981L13.956,12.1Z" transform="translate(42.045 60.988)" fill="url(#linear-gradient)"/>
        <circle id="Elipse_3" data-name="Elipse 3" cx="12.981" cy="12.981" r="12.981" transform="translate(38.944 129.809)" fill="#b4b4b4"/>
        <circle id="Elipse_4" data-name="Elipse 4" cx="12.981" cy="12.981" r="12.981" transform="translate(138.467 129.809)" fill="#b4b4b4"/>
        <path id="Trazado_16" data-name="Trazado 16" d="M191.308,39.758l-7.01,14.5H164.913a21.641,21.641,0,0,0-42.405,0H65.39a21.641,21.641,0,0,0-42.405,0H11.371A10.5,10.5,0,0,1,3.989,51.2,10.394,10.394,0,0,1,.917,43.817V22.078A4.327,4.327,0,0,1,4.2,17.872L31.743,11H143.356l44.335,7.391a4.308,4.308,0,0,1,3.617,4.266V39.767Z" transform="translate(7.737 84.2)" fill="#b4b4b4"/>
        <path id="Trazado_17" data-name="Trazado 17" d="M22.105,14.871a12.84,12.84,0,0,1,1.93,6.724A12.914,12.914,0,0,1,4.33,32.646,12.947,12.947,0,1,0,22.105,14.871Zm99.523,0a12.839,12.839,0,0,1,1.93,6.724,12.914,12.914,0,0,1-19.706,11.051,12.947,12.947,0,1,0,17.776-17.776Z" transform="translate(36.544 116.868)" fill="#010101" opacity="0.1"/>
        <path id="Trazado_18" data-name="Trazado 18" d="M170.928,30.141a4.423,4.423,0,0,1-3.946-2.631,25.824,25.824,0,0,0-19.169-14.262,20.462,20.462,0,0,0-8.2,0A25.824,25.824,0,0,0,120.439,27.51a4.422,4.422,0,0,1-3.946,2.631H71.4a4.414,4.414,0,0,1-3.929-2.622A25.824,25.824,0,0,0,48.29,13.24a22.122,22.122,0,0,0-4.1-.4,21.409,21.409,0,0,0-4.1.415A25.824,25.824,0,0,0,20.916,27.51a4.448,4.448,0,0,1-3.955,2.64H13.9c-2.787,0-7.945-1.09-9.918-3.064A10.382,10.382,0,0,1,.917,19.7V28.35A10.46,10.46,0,0,0,11.362,38.8H22.993a21.636,21.636,0,0,1,42.4,0h57.117a21.641,21.641,0,0,1,42.405,0H184.3l7.01-14.5V15.637l-5.833,12.081a4.284,4.284,0,0,1-3.86,2.423H170.928Z" transform="translate(7.737 99.667)" fill="#010101" opacity="0.1"/>
        <path id="Trazado_19" data-name="Trazado 19" d="M41.492,191.313A17.339,17.339,0,0,1,24.184,174V74.473a22.3,22.3,0,0,0-7.01-15.88A34.3,34.3,0,0,1,19.6,7.429,4.327,4.327,0,0,1,26.538,9.7L30.493,25.23a4.967,4.967,0,0,0,2.6,3.306,12.984,12.984,0,0,0,14.522-2.57l1.038-1.038a5.051,5.051,0,0,0,1.393-4.587V20.3L47.308,6.053a4.31,4.31,0,0,1,1.428-4.093A4.388,4.388,0,0,1,53,1.155,34.9,34.9,0,0,1,76.109,34.066,34.191,34.191,0,0,1,65.81,58.6a22.3,22.3,0,0,0-7.01,15.88V174a17.334,17.334,0,0,1-17.308,17.317Z" transform="translate(58.031 -0.916)" fill="#303c42"/>
        <path id="Trazado_20" data-name="Trazado 20" d="M12.372,8.325a25.573,25.573,0,0,0,3.141,32.912,30.939,30.939,0,0,1,9.58,22.051v99.523a8.663,8.663,0,0,0,17.308,0V63.288a30.929,30.929,0,0,1,9.589-22.051,25.586,25.586,0,0,0,7.72-18.364A26.391,26.391,0,0,0,49.792,2.241l1,5.236A13.665,13.665,0,0,1,47.04,19.853l-1.047,1.038A21.635,21.635,0,0,1,21.7,25.2a13.518,13.518,0,0,1-7.33-9.018L12.363,8.325Z" transform="translate(65.775 10.269)" fill="#ccc"/>
        <path id="Trazado_21" data-name="Trazado 21" d="M33.961,2.241,34.29,4a26.287,26.287,0,0,1,3.332,12.618A25.586,25.586,0,0,1,29.9,34.98a30.879,30.879,0,0,0-9.589,22.051v99.523a8.668,8.668,0,0,1-8.654,8.654,8.055,8.055,0,0,1-1.99-.407,8.528,8.528,0,0,0,8.247,6.664,8.663,8.663,0,0,0,8.654-8.654V63.288a30.929,30.929,0,0,1,9.589-22.051,25.586,25.586,0,0,0,7.72-18.364A26.391,26.391,0,0,0,33.961,2.241Z" transform="translate(81.607 10.269)" fill="#010101" opacity="0.1"/>
        <path id="Trazado_22" data-name="Trazado 22" d="M196.848,94.966,154.01,87.817,141.582,69.2a17.282,17.282,0,0,0-14.4-7.711h-5.816a24.906,24.906,0,0,1,2.458-2.9A34.158,34.158,0,0,0,134.14,34.058a34.9,34.9,0,0,0-23.107-32.9,4.388,4.388,0,0,0-4.267.8,4.31,4.31,0,0,0-1.428,4.093L108.065,20.3l.009.043a5.037,5.037,0,0,1-1.385,4.587l-1.047,1.038a13,13,0,0,1-14.53,2.57,4.967,4.967,0,0,1-2.588-3.306L84.568,9.7a4.327,4.327,0,0,0-6.932-2.276A34.29,34.29,0,0,0,75.2,58.592a24.863,24.863,0,0,1,2.466,2.9H63.2a17.287,17.287,0,0,0-14.4,7.7L36.261,88,9.831,94.611A12.964,12.964,0,0,0,0,107.194v21.739a18.985,18.985,0,0,0,5.591,13.5,19.256,19.256,0,0,0,13.509,5.6H30.731a21.636,21.636,0,0,0,42.4,0h9.087V174a17.308,17.308,0,1,0,34.617,0V148.033h13.414a21.641,21.641,0,0,0,42.405,0h19.385a8.611,8.611,0,0,0,7.754-4.786l7-14a4.31,4.31,0,0,0,.346-.952l.45-1.939a4.246,4.246,0,0,0,.113-.978V107.765a12.938,12.938,0,0,0-10.852-12.808Z" transform="translate(0 -0.916)" fill="url(#linear-gradient-2)"/>
      </g>
    </g>
  </g>
</svg>
