<svg xmlns="http://www.w3.org/2000/svg" xmlns:xlink="http://www.w3.org/1999/xlink" width="350" height="250" viewBox="0 0 350 250">
  <defs>
    <linearGradient id="linear-gradient" x1="0.073" y1="0.288" x2="1.004" y2="0.722" gradientUnits="objectBoundingBox">
      <stop offset="0" stop-color="#fff" stop-opacity="0.2"/>
      <stop offset="1" stop-color="#fff" stop-opacity="0"/>
    </linearGradient>
    <clipPath id="clip-Mesa_de_trabajo_4">
      <rect width="350" height="250"/>
    </clipPath>
  </defs>
  <g id="Mesa_de_trabajo_4" data-name="Mesa de trabajo – 4" clip-path="url(#clip-Mesa_de_trabajo_4)">
    <rect width="350" height="250" fill="#0090ff"/>
    <g id="toy" transform="translate(94.627 44.628)">
      <path id="Trazado_23" data-name="Trazado 23" d="M160.157,37.208c.043-4.37-.449-10.49-5.173-13.253-3.4-1.982-7.842-1.584-13.818,1.266A43.375,43.375,0,0,0,58.875,44.407a40.8,40.8,0,0,0,6.171,21.862h-.094c-16.451,0-34.306-3.234-42.625-19.866a3.639,3.639,0,0,0-5.788-.94C5.782,56.206,1,70.378,1,91.43c0,17.826,14.614,68.727,79.579,68.727,71.823,0,79.579-37.945,79.579-54.258,0-18.18-5.556-33.806-16.118-45.468C154.681,51.062,160.092,43.249,160.157,37.208Z" transform="translate(0)" fill="#303c42"/>
      <path id="Trazado_24" data-name="Trazado 24" d="M146.689,99.665c0,30.319-25.7,47.024-72.344,47.024C15.29,146.689,2,101.148,2,85.2,2,68.557,5.183,56.815,12.222,47.924,24.456,66.4,47.179,67.963,66,67.1a3.617,3.617,0,0,0,2.575-5.983,34.268,34.268,0,0,1-8.7-22.94,36.153,36.153,0,0,1,69.942-12.877,3.6,3.6,0,0,0,5.194,1.845c7.423-4.3,9.7-3.393,10.092-3.169s1.642,1.389,1.584,6.931c-.036,3.176-4.37,10.157-16.422,20.242a3.812,3.812,0,0,0-1.063,1.49,3.6,3.6,0,0,0,.846,3.943C140.93,67.081,146.689,81.977,146.689,99.665Z" transform="translate(6.234 6.234)" fill="#fdd835"/>
      <path id="Trazado_25" data-name="Trazado 25" d="M141.806,27.84c0,30.319-25.7,47.024-72.344,47.024-40.3,0-59.264-21.2-67.258-39.739,4.724,19.815,22.3,50.59,70.876,50.59,46.648,0,72.344-16.7,72.344-47.024a65.358,65.358,0,0,0-5.44-26.912A71.094,71.094,0,0,1,141.806,27.84Z" transform="translate(7.5 67.207)" opacity="0.1"/>
      <path id="Trazado_26" data-name="Trazado 26" d="M68.488,13.015A69.5,69.5,0,0,0,56.84,14.44a114.331,114.331,0,0,1-20.907,2.192,84.32,84.32,0,0,1-23.584-3.241,3.69,3.69,0,0,0-1.136-.347,3.637,3.637,0,0,0-3.1,6.207c.174.3.383.723.644,1.23C21.138,44.333,38.8,56.422,61.253,56.422A25.348,25.348,0,0,0,86.574,31.1,18.107,18.107,0,0,0,68.488,13.015Z" transform="translate(37.412 74.812)" fill="#303c42"/>
      <path id="Trazado_27" data-name="Trazado 27" d="M51.844,42.94c-24.612,0-37.4-16.849-43.334-27.006a96.63,96.63,0,0,0,18.014,1.686,121.9,121.9,0,0,0,22.159-2.3A64.7,64.7,0,0,1,59.079,14,10.865,10.865,0,0,1,69.93,24.854,18.1,18.1,0,0,1,51.844,42.94Z" transform="translate(46.821 81.06)" fill="#ffca28"/>
      <path id="Trazado_28" data-name="Trazado 28" d="M65.98,14.891A18.057,18.057,0,0,1,48.155,30.409c-16.306,0-27.339-7.408-34.711-15.351-1.78-.246-3.473-.506-4.934-.789,5.932,10.157,18.723,27.006,43.334,27.006A18.1,18.1,0,0,0,69.93,23.189,10.779,10.779,0,0,0,65.98,14.891Z" transform="translate(46.821 82.725)" opacity="0.1"/>
      <circle id="Elipse_5" data-name="Elipse 5" cx="7.234" cy="7.234" r="7.234" transform="translate(102.281 26.32)" fill="#303c42"/>
      <path id="Trazado_29" data-name="Trazado 29" d="M160.157,37.208c.043-4.37-.449-10.49-5.173-13.253-3.4-1.982-7.842-1.584-13.818,1.266A43.375,43.375,0,0,0,58.875,44.407a40.8,40.8,0,0,0,6.171,21.862h-.094c-16.451,0-34.306-3.234-42.625-19.866a3.639,3.639,0,0,0-5.788-.94C5.782,56.206,1,70.378,1,91.43c0,17.826,14.614,68.727,79.579,68.727,71.823,0,79.579-37.945,79.579-54.258,0-18.18-5.556-33.806-16.118-45.468C154.681,51.062,160.092,43.249,160.157,37.208Z" transform="translate(0)" fill="url(#linear-gradient)"/>
    </g>
  </g>
</svg>
